/* XPM */
static const char * alephone_xpm[] = {
"32 32 77 1",
" 	c None",
".	c #020602",
"+	c #020A02",
"@	c #020E02",
"#	c #060E02",
"$	c #0A0E06",
"%	c #061202",
"&	c #061602",
"*	c #12160E",
"=	c #121612",
"-	c #0A1A02",
";	c #0A1E02",
">	c #0A2202",
",	c #0E2602",
"'	c #0E2A02",
")	c #321E2E",
"!	c #0E2E02",
"~	c #123202",
"{	c #2E262A",
"]	c #1E2E16",
"^	c #2A2A22",
"/	c #123602",
"(	c #1E3216",
"_	c #123A02",
":	c #163E02",
"<	c #32322A",
"[	c #164202",
"}	c #263E1A",
"|	c #164602",
"1	c #1E4606",
"2	c #1A4A02",
"3	c #1A4E02",
"4	c #1A5202",
"5	c #1E5206",
"6	c #1E5602",
"7	c #1E5A02",
"8	c #365226",
"9	c #2E561A",
"0	c #1E5E02",
"a	c #464E36",
"b	c #226202",
"c	c #465242",
"d	c #226602",
"e	c #226A02",
"f	c #266E02",
"g	c #366A1A",
"h	c #267202",
"i	c #725266",
"j	c #267602",
"k	c #426A2E",
"l	c #2A7A02",
"m	c #2A7E02",
"n	c #2A8202",
"o	c #427A26",
"p	c #36820E",
"q	c #527636",
"r	c #2E8602",
"s	c #2E8A02",
"t	c #428222",
"u	c #2E8E02",
"v	c #527E3A",
"w	c #3E8A16",
"x	c #329202",
"y	c #4A8A2A",
"z	c #329602",
"A	c #468E22",
"B	c #329A02",
"C	c #369E02",
"D	c #36A202",
"E	c #36A602",
"F	c #3AAA02",
"G	c #3AAE02",
"H	c #3AB202",
"I	c #7E9676",
"J	c #3EB602",
"K	c #3EBA02",
"L	c #3EBE02",
"                                ",
"             ======             ",
"          *.=      =.*          ",
"        *..  AAhh88  ..*        ",
"       )+. Iwusmhb78~ ++)       ",
"      %+@ ADEDCunfd3[~ %%@      ",
"     &&# yDFGGFzshd62'; &&#     ",
"    <;&& BEJKKJDzlf73/> &;;{    ",
"    ,;- mBEKLKJDzmf73/,+ ,,;    ",
"   !!>; mzDHJJGCxlf63/,$ !!'>   ",
"   //,; muBFGGFzshe62/,+ //~'   ",
"  a::!, hmszzzxnmdb3[!;+ [::_^  ",
"  |||/' djmsssrlhb7|:';. 2||[_  ",
"  333|/ 5bdhhhfdb43_~;%= 43333  ",
" 66663[  70dddb763|~'&@  66643/ ",
" b000061 :23333|[/~>-+. k00000/ ",
" bbbbbb1  _|||[:_!'-%.  dbbbb0/ ",
" bfffffde  ,''',>-%+.  hffffee/ ",
" ohhhhhhee   ;-&&@+   vhhhhhff* ",
"  hmmmmmmlh          nmmmmmmf/  ",
"  qrrrrrrrnmt      psnrrrrrmd/  ",
"  ouxxxxxxxxxm6  xxxxxxxxxxh3*  ",
"   uzzzzzzzzzn7  zzzzzzzzzzb/   ",
"   ozDDDDDDDDsb  DDDDDDDDBr/*   ",
"    oEFFFFFFFud  FFFFFFFFue]    ",
"     rDHHHHHHze  HHHHHHFz3'     ",
"      nGHJJJJCf  JJJJJHzh'      ",
"       gsGJKKDh  KKKHzl_(       ",
"        iszGJDh  KHDxb|c        ",
"          s977|  b4/}s          ",
"                                ",
"                                "};
