/* XPM */
static const char * alephone_xpm[] = {
"32 32 210 2",
"  	c None",
". 	c #000000",
"+ 	c #000100",
"@ 	c #010100",
"# 	c #010200",
"$ 	c #010300",
"% 	c #010400",
"& 	c #020400",
"* 	c #020600",
"= 	c #020700",
"- 	c #020800",
"; 	c #030800",
"> 	c #030900",
", 	c #030A00",
"' 	c #040B00",
") 	c #040C00",
"! 	c #040D00",
"~ 	c #050D00",
"{ 	c #050E00",
"] 	c #051000",
"^ 	c #061100",
"/ 	c #061200",
"( 	c #061300",
"_ 	c #071400",
": 	c #071500",
"< 	c #071600",
"[ 	c #081600",
"} 	c #081700",
"| 	c #081800",
"1 	c #091A00",
"2 	c #091B00",
"3 	c #091C00",
"4 	c #0A1C00",
"5 	c #0A1D00",
"6 	c #0A1E00",
"7 	c #0B2000",
"8 	c #0B2100",
"9 	c #0B2200",
"0 	c #0C2200",
"a 	c #0B2300",
"b 	c #0C2300",
"c 	c #0C2400",
"d 	c #0C2500",
"e 	c #0D2600",
"f 	c #0D2700",
"g 	c #0D2800",
"h 	c #0E2800",
"i 	c #0E2900",
"j 	c #0E2B00",
"k 	c #0F2B00",
"l 	c #0F2C00",
"m 	c #0F2D00",
"n 	c #0F2E00",
"o 	c #102E00",
"p 	c #102F00",
"q 	c #103000",
"r 	c #103100",
"s 	c #113300",
"t 	c #113400",
"u 	c #123500",
"v 	c #123600",
"w 	c #123700",
"x 	c #123800",
"y 	c #133800",
"z 	c #133900",
"A 	c #133A00",
"B 	c #143A00",
"C 	c #143B00",
"D 	c #143C00",
"E 	c #153E00",
"F 	c #153F00",
"G 	c #154000",
"H 	c #164000",
"I 	c #164100",
"J 	c #164200",
"K 	c #164300",
"L 	c #174300",
"M 	c #174400",
"N 	c #174500",
"O 	c #184600",
"P 	c #184700",
"Q 	c #184800",
"R 	c #184900",
"S 	c #194900",
"T 	c #194A00",
"U 	c #194B00",
"V 	c #194C00",
"W 	c #1A4C00",
"X 	c #1A4D00",
"Y 	c #1A4E00",
"Z 	c #1A4F00",
"` 	c #1B4F00",
" .	c #1A5000",
"..	c #1B5000",
"+.	c #1B5100",
"@.	c #1B5200",
"#.	c #1C5200",
"$.	c #1C5300",
"%.	c #1C5400",
"&.	c #1C5500",
"*.	c #1D5500",
"=.	c #1D5600",
"-.	c #1D5700",
";.	c #1E5800",
">.	c #1E5900",
",.	c #1E5B00",
"'.	c #1F5B00",
").	c #1F5C00",
"!.	c #1F5D00",
"~.	c #205E00",
"{.	c #205F00",
"].	c #206000",
"^.	c #206100",
"/.	c #216200",
"(.	c #216300",
"_.	c #226300",
":.	c #226500",
"<.	c #226600",
"[.	c #236700",
"}.	c #226800",
"|.	c #236800",
"1.	c #236900",
"2.	c #236A00",
"3.	c #246A00",
"4.	c #246B00",
"5.	c #246C00",
"6.	c #256D00",
"7.	c #256E00",
"8.	c #256F00",
"9.	c #257000",
"0.	c #267000",
"a.	c #267100",
"b.	c #267200",
"c.	c #267300",
"d.	c #277300",
"e.	c #277400",
"f.	c #277500",
"g.	c #287500",
"h.	c #277600",
"i.	c #287700",
"j.	c #287800",
"k.	c #287900",
"l.	c #297A00",
"m.	c #297B00",
"n.	c #2A7D00",
"o.	c #2B7F00",
"p.	c #2B8000",
"q.	c #2B8100",
"r.	c #2B8200",
"s.	c #2C8200",
"t.	c #2C8300",
"u.	c #2C8400",
"v.	c #2D8400",
"w.	c #2C8500",
"x.	c #2D8600",
"y.	c #2D8700",
"z.	c #2E8800",
"A.	c #2E8900",
"B.	c #2E8A00",
"C.	c #2E8B00",
"D.	c #2F8C00",
"E.	c #2F8D00",
"F.	c #308E00",
"G.	c #308F00",
"H.	c #309000",
"I.	c #319100",
"J.	c #319200",
"K.	c #319300",
"L.	c #329500",
"M.	c #329600",
"N.	c #339700",
"O.	c #339800",
"P.	c #339900",
"Q.	c #349A00",
"R.	c #349C00",
"S.	c #349D00",
"T.	c #359D00",
"U.	c #359E00",
"V.	c #359F00",
"W.	c #35A000",
"X.	c #36A000",
"Y.	c #36A100",
"Z.	c #36A200",
"`.	c #37A300",
" +	c #37A400",
".+	c #38A600",
"++	c #38A700",
"@+	c #38A800",
"#+	c #38A900",
"$+	c #39AA00",
"%+	c #39AB00",
"&+	c #39AC00",
"*+	c #3AAC00",
"=+	c #3AAD00",
"-+	c #3AAE00",
";+	c #3BB000",
">+	c #3BB100",
",+	c #3BB200",
"'+	c #3CB200",
")+	c #3CB300",
"!+	c #3CB400",
"~+	c #3CB500",
"{+	c #3DB500",
"]+	c #3DB600",
"^+	c #3EB800",
"/+	c #3EB900",
"(+	c #3EBA00",
"_+	c #3EBB00",
":+	c #3FBB00",
"<+	c #40BE00",
"                                                                ",
"                      + + . . . . . + +                         ",
"                % $ $ #     ..R G     # $ & %                   ",
"              ; * *   8.x.x.o.e.}.>.N k   = > -                 ",
"            ! , >   D.Q.T.P.H.t.f.<.-.L l   ) { )               ",
"          _ ] ~   G.Z.%+=+#+V.H.o.6.~.Y y 8   ( : ^             ",
"        4 | / ~ l.T.*+]+/+!+#+P.x.c./.#.H g < [ 4 2 _           ",
"      c b 2 :   E.Y.>+:+<+/+=+R.A.f._.%.K m }   8 c 7 <         ",
"      l i 6 < ^.D.U.-+^+_+]+$+Q.y.e./.$.J p |   g l j 8         ",
"    s t q 9 : [.v.M. +=+;+&+Y.J.p.8.{.` F m } >   t t n 2       ",
"    D D w f   (.l.B.M.U.W.R.K.x.i.[.>.T B i _ -   D D z f       ",
"  J M M G o   >.7.m.w.C.E.B.s.i.4.~.+.J s 0 ] *   M M J s |     ",
"  T W W S y 7 Z ].4.c.j.k.i.a.|.{.%.P z k 1 ' % F W W U E 6     ",
"  @.%.%.$.N m   +.!./.<.[.:.^.,.@.Q D p 8 / *   X %.%.%.O a     ",
"  ;.'.'.'.%.E   D W $.=.-.*.@.V M C p c < > $   '.'.'.'.X e     ",
"  {./././.^.#.D   u I N O N J D u l 0 [ ' %   %././././.@.h     ",
"  :.2.2.2.1.:.$.  5 g q t t r l d 5 ( , % @   1.2.2.2.|.&.f     ",
"  3.b.b.b.b.b.5.).  ^ | 3 5 2 | ( ! = $     0.b.b.b.b.9.%.c     ",
"  7.l.m.m.m.m.m.i.4.    ' , > - * & #   ~.l.m.m.m.m.m.e.Y 6     ",
"    q.u.u.u.u.u.u.t.n.g.).          :.o.u.u.u.u.u.u.u.d.H :     ",
"    q.E.F.F.F.F.F.F.F.E.z.:.y   t.F.F.F.F.F.F.F.F.F.A.|.p       ",
"    m.J.M.M.M.M.M.M.M.M.K.6.y   H.M.M.M.M.M.M.M.M.L.u...6       ",
"      B.S.W.W.W.W.W.W.W.R.e.C   O.W.W.W.W.W.W.W.V.M.5.r         ",
"      b.N..+++++++++++++`.l.E   X.++++++++++++++W.o.M 1         ",
"        h.U.=+-+-+-+-+-+$+o.I   ++-+-+-+-+-+-+.+z. .9           ",
"          e.U.;+!+~+~+~+;+u.L   =+~+~+~+~+)+@+y.+.d             ",
"            <.I.%+]+/+(+{+y.N   '+(+/+^+>+U.j.Q 9               ",
"              T c.J.++,+)+x.N   ;+~+*+R.q.'.u 1                 ",
"                  P ].h.r.[.x   s.n.1...v 8                     ",
"                        t n 3   A r d                           ",
"                                                                ",
"                                                                "};
