/* XPM */
static const char * alephone_xpm[] = {
"32 32 187 2",
"  	c None",
". 	c #1D430D",
"+ 	c #1A4607",
"@ 	c #1C4809",
"# 	c #1F4A0C",
"$ 	c #204B0D",
"% 	c #214C0E",
"& 	c #224D0F",
"* 	c #1E5009",
"= 	c #20520B",
"- 	c #21530C",
"; 	c #22540D",
"> 	c #23550E",
", 	c #24550F",
"' 	c #275607",
") 	c #215909",
"! 	c #225A0A",
"~ 	c #235B0B",
"{ 	c #245C0C",
"] 	c #206005",
"^ 	c #265E0F",
"/ 	c #216106",
"( 	c #275F10",
"_ 	c #286011",
": 	c #2B6108",
"< 	c #25640A",
"[ 	c #206702",
"} 	c #27660D",
"| 	c #236904",
"1 	c #28670E",
"2 	c #29680F",
"3 	c #2C6905",
"4 	c #256B07",
"5 	c #2A6910",
"6 	c #276C08",
"7 	c #2B6A11",
"8 	c #2E6B07",
"9 	c #2F6B09",
"0 	c #286D0A",
"a 	c #2C6B13",
"b 	c #296E0B",
"c 	c #21710E",
"d 	c #2A6F0D",
"e 	c #2B700E",
"f 	c #267303",
"g 	c #2C710F",
"h 	c #277405",
"i 	c #257412",
"j 	c #2D7211",
"k 	c #287506",
"l 	c #2F7312",
"m 	c #2A7608",
"n 	c #2B7709",
"o 	c #257A00",
"p 	c #2C780B",
"q 	c #247B0D",
"r 	c #2D790C",
"s 	c #277C00",
"t 	c #2E7A0E",
"u 	c #297D02",
"v 	c #307B0F",
"w 	c #2A7E03",
"x 	c #337C02",
"y 	c #317C11",
"z 	c #2B7F05",
"A 	c #2C8007",
"B 	c #2E8108",
"C 	c #2F820A",
"D 	c #298500",
"E 	c #26850D",
"F 	c #30830C",
"G 	c #2A8600",
"H 	c #28860F",
"I 	c #2B8700",
"J 	c #31840E",
"K 	c #298710",
"L 	c #2D8802",
"M 	c #33850F",
"N 	c #2E8903",
"O 	c #248C06",
"P 	c #2F8A05",
"Q 	c #318B07",
"R 	c #328C09",
"S 	c #2D9000",
"T 	c #338E0B",
"U 	c #2A910E",
"V 	c #358F0D",
"W 	c #2C9210",
"X 	c #309300",
"Y 	c #259603",
"Z 	c #319402",
"` 	c #329504",
" .	c #299807",
"..	c #349606",
"+.	c #359708",
"@.	c #2C9A0B",
"#.	c #41921F",
"$.	c #36980A",
"%.	c #309B00",
"&.	c #2D9B0D",
"*.	c #319C00",
"=.	c #38990C",
"-.	c #2F9C0F",
";.	c #339D00",
">.	c #349E00",
",.	c #3A9B10",
"'.	c #359F01",
").	c #2BA205",
"!.	c #37A004",
"~.	c #2DA307",
"{.	c #38A106",
"].	c #2EA40A",
"^.	c #39A208",
"/.	c #33A500",
"(.	c #30A50C",
"_.	c #34A600",
":.	c #3BA30B",
"<.	c #31A60E",
"[.	c #479E22",
"}.	c #35A700",
"|.	c #3DA50F",
"1.	c #33A810",
"2.	c #37A900",
"3.	c #38AA00",
"4.	c #2EAD03",
"5.	c #3AAB01",
"6.	c #2FAE05",
"7.	c #40A813",
"8.	c #3BAC04",
"9.	c #41A914",
"0.	c #31AF08",
"a.	c #39AC17",
"b.	c #3CAD06",
"c.	c #48A720",
"d.	c #42AA16",
"e.	c #33B00A",
"f.	c #49A821",
"g.	c #3EAE09",
"h.	c #34B10D",
"i.	c #38B200",
"j.	c #3FAF0B",
"k.	c #36B20F",
"l.	c #2FB600",
"m.	c #3AB300",
"n.	c #30B700",
"o.	c #3BB400",
"p.	c #3DB500",
"q.	c #32B803",
"r.	c #4FAD27",
"s.	c #3EB601",
"t.	c #44B314",
"u.	c #34BA05",
"v.	c #4BB120",
"w.	c #46B416",
"x.	c #3FB804",
"y.	c #35BB08",
"z.	c #37BC0B",
"A.	c #30C000",
"B.	c #38BD0E",
"C.	c #40BA1C",
"D.	c #3DBE00",
"E.	c #3ABE10",
"F.	c #3EBF00",
"G.	c #5BB236",
"H.	c #40C000",
"I.	c #4CBA1E",
"J.	c #43C200",
"K.	c #4FBC20",
"L.	c #49BF15",
"M.	c #50BD22",
"N.	c #4CC118",
"O.	c #55C227",
"P.	c #56C329",
"Q.	c #51C61F",
"R.	c #57C42A",
"S.	c #55C923",
"T.	c #5BC72E",
"U.	c #56CA25",
"V.	c #5CC82F",
"W.	c #62C637",
"X.	c #57CB26",
"Y.	c #5DC930",
"Z.	c #63C739",
"`.	c #58CD28",
" +	c #61CD34",
".+	c #69CD3E",
"++	c #72CF4A",
"                           +U.U.U.U.V.                          ",
"                    U.H./.` I     I ` ~.E.L.Z.                  ",
"                S.A.~.                    >.q.C.                ",
"            V.q.B.L       ++T.T.P.P.Z.      G l.k.w.            ",
"          P.q.D.w     .+L.q.q.q.q.q.l.s.M.    o o.e.g.          ",
"        M.l.D.O     T.q.B.D.D.D.D.B.q.l.k.t.    G k.}.|.        ",
"      K.i.q._.    L.q.B.D.H.H.H.H.D.B.q.l.e.3.    ;.3.^.-.      ",
"      e.o.B.A   M.q.q.D.H.H.H.H.H.H.D.q.l.k.3.@.  s e.(.-.      ",
"    g.e.p.e.    s.q.q.H.H.H.H.H.H.H.H.B.q.o.g.;.    {.<.;.W     ",
"  |.}.e.p.*.    p.q.B.H.H.H.H.H.H.H.H.B.q.o.e.<.    ..}.-...w   ",
"  !.}.e.l...  ~.o.q.B.H.H.H.H.H.H.H.D.q.q.k.3.(.u   S <.-.S B   ",
"  >.(.e.l.S   *.o.l.q.D.H.H.H.H.H.H.D.q.l.k.}.~.q   ..(.-.W K   ",
"R -.].3.o.S   S e.p.q.q.D.H.H.H.H.D.q.q.o.e.<.!.h   @.~.@.R M 4 ",
"P ..{.}.k.*.    e.k.l.q.q.B.B.B.B.q.q.p.e.}.~.;.    !.>...R F 0 ",
"E ..;.<.e.(.    ;.e.k.p.q.q.q.q.q.q.p.k.e.(.>.Q     ^.*...N B 4 ",
"A W @.~.}.e.    z }.g.e.o.o.p.p.o.k.e.3.<.>.=.d     ^...R M y 3 ",
"t R ..;.(.e.}.    S (.}.e.e.e.e.e.3.}.].>.@.F     |.-...P F t 1 ",
"k K R =.>.}.e.      ..{.].<.}.}.<.].{.*...L       {...R H w n < ",
"0 C P W @.!.<.g.      F >.;.>.>.;.-.....s       |.=.W L B r h ^ ",
"/ w J Q S @.>.(.g.      [ u R ....N p ]       r...W P C y m j > ",
"  p w J Q W =.;.~.a.                        c...W P C y n j e   ",
"  } p z J P R ..@.>.:.v.                G.,...R N F x p l e (   ",
"  ; m p x C L R W ..@.-.;.d.#.    [.c.@...W Q K B y n j e d *   ",
"    } j n v z J L R R S ....p     F S R Q K F z t m j e 0 :     ",
"    # g j k p y A C M K P Q c     q L J C z y p k g d 0 6 @     ",
"      , e g j k p v y z A C |     f z y t n k j e b 0 6 ;       ",
"        { b d g j i m n r t <     6 p m i j e d 0 6 2 !         ",
"          ~ 0 b d e g j j l ^     } j g e b 0 6 2 2 !           ",
"            - 2 9 0 0 b b e !     < b 0 9 2 2 2 2 =             ",
"              + ^ 2 2 2 2 6 '     _ 2 2 2 2 2 ^ .               ",
"                  # ) 2 2 2 >     ^ 2 2 2 ! #                   ",
"                        % > $     - > &                         "};
